<?xml version="1.0" encoding="iso-8859-1"?>
<!-- Generator: Adobe Illustrator 23.0.0, SVG Export Plug-In . SVG Version: 6.00 Build 0)  -->
<svg version="1.1" id="&#x56FE;&#x5C42;_1" xmlns="http://www.w3.org/2000/svg" xmlns:xlink="http://www.w3.org/1999/xlink" x="0px"
	 y="0px" viewBox="0 0 203 203" style="enable-background:new 0 0 203 203;" xml:space="preserve">
<linearGradient id="SVGID_1_" gradientUnits="userSpaceOnUse" x1="34.4809" y1="45.6391" x2="171.7044" y2="160.8391">
	<stop  offset="0" style="stop-color:#F92581"/>
	<stop  offset="0.5034" style="stop-color:#C000C6"/>
	<stop  offset="1" style="stop-color:#6200E0"/>
</linearGradient>
<circle style="fill:url(#SVGID_1_);" cx="101.069" cy="101.54" r="99.733"/>
<g>
	<path style="fill:#FFFFFF;" d="M161.559,69.639c-1.647-5.868-5.48-10.743-10.794-13.728c-10.969-6.161-24.906-2.25-31.068,8.72
		l-16.651,29.644l4.415,7.86l18.948-33.734c2.771-4.933,7.914-7.712,13.207-7.712c2.505,0,5.044,0.623,7.378,1.934
		c3.521,1.978,6.061,5.208,7.152,9.096c1.091,3.888,0.603,7.968-1.374,11.489l-38.644,68.799c-1.978,3.521-5.208,6.061-9.096,7.152
		c-3.887,1.091-7.967,0.602-11.489-1.375h0c-3.521-1.977-6.06-5.208-7.152-9.096c-1.091-3.888-0.603-7.969,1.374-11.489
		l10.865-19.343l-4.415-7.86l-13.162,23.433c-2.985,5.314-3.722,11.472-2.075,17.34c1.647,5.868,5.481,10.744,10.794,13.728
		c3.46,1.944,7.278,2.934,11.14,2.934c2.07,0,4.153-0.285,6.2-0.859c5.868-1.647,10.743-5.48,13.728-10.794l38.644-68.799
		C162.468,81.665,163.206,75.507,161.559,69.639z"/>
	<path style="fill:#FFFFFF;" d="M54.426,62.169c2.366-1.329,4.975-2.006,7.616-2.006c1.415,0,2.839,0.195,4.239,0.587
		c4.012,1.126,7.345,3.747,9.385,7.379l18.825,33.515l8.831,15.721l0,0l10.989,19.563c0.737,1.312,1.251,2.688,1.577,4.084
		l4.222-7.516l-12.924-23.009l0,0l-8.831-15.721L81.54,64.831c-2.922-5.202-7.694-8.954-13.439-10.566
		c-5.743-1.612-11.773-0.891-16.974,2.031c-5.202,2.922-8.954,7.694-10.566,13.439s-0.891,11.772,2.03,16.974l31.72,56.471
		c0.173-3.288,0.96-6.527,2.348-9.576L48.465,83.409C44.253,75.909,46.927,66.381,54.426,62.169z"/>
</g>
</svg>
